# xmcd CD database file
#
# Track frame offsets:
#	150
#	9606
#	20437
#	34232
#	48396
#	70027
#	81870
#	91634
#	106292
#	121633
#	143780
#	156132
#
# Disc length: 2269 seconds
#
# Revision: 0
# Processed by: cddbd v1.5.2PL0 Copyright (c) Steve Scherf et al.
# Submitted via: CDex 1.51
#
DISCID=8a08db0c
DTITLE=Various Artist - Dixieland (American Roots Music ARM67962)
DYEAR=2002
DGENRE=Jazz
TTITLE0=Araz-A-Ma-Tazz - The Sid Philips Band
TTITLE1=Sweet Georgia Brown - The Sid Philips Band
TTITLE2=Chicago - George's Boys
TTITLE3=Sugar Foot Stomp - The Sid Philips Band
TTITLE4=Frog-I-More Rag - Jim Sutherland
TTITLE5=Ja Da - George's Boys
TTITLE6=Coronation Rag - The Dixieland Stompers
TTITLE7=Air Mail Special - Dave Shepherd Quintet
TTITLE8=The Fan Dangler - The Dixieland Stompers
TTITLE9=Snake Rag - Jim Sutherland
TTITLE10=Basin St. Blues - The Sid Philips Band
TTITLE11=When The Saints Go Marching In - Dave Shepherd Quintet
EXTD=YEAR: 2002
EXTT0=
EXTT1=
EXTT2=
EXTT3=
EXTT4=
EXTT5=
EXTT6=
EXTT7=
EXTT8=
EXTT9=
EXTT10=
EXTT11=
PLAYORDER=
